<svg xmlns="http://www.w3.org/2000/svg" width="1200" height="420" viewBox="0 0 1200 420" role="img" aria-labelledby="title desc">
  <title id="title">scout</title>
  <desc id="desc">OSINT</desc>
  <defs>
    <radialGradient id="bg" cx="0.32" cy="0.42" r="0.95" gradientUnits="userSpaceOnUse">
      <stop offset="0" stop-color="#15101F"/>
      <stop offset="0.55" stop-color="#0C0F16"/>
      <stop offset="1" stop-color="#0B0E11"/>
    </radialGradient>
    <linearGradient id="acc" x1="0" y1="0" x2="1" y2="0">
      <stop offset="0" stop-color="#7C5CFF"/>
      <stop offset="1" stop-color="#9B7BFF"/>
    </linearGradient>
    <linearGradient id="panel" x1="0" y1="0" x2="0" y2="1">
      <stop offset="0" stop-color="#161B26"/>
      <stop offset="1" stop-color="#10131B"/>
    </linearGradient>
  </defs>
  <rect width="1200" height="420" fill="url(#bg)"/>
  <rect x="598" y="56" width="1" height="312" fill="#222838"/>
  <text x="64" y="74" font-family="-apple-system,BlinkMacSystemFont,Segoe UI,sans-serif" font-size="12" letter-spacing="3" fill="#7C5CFF">OSINT</text>
  <text x="62" y="128" font-family="-apple-system,BlinkMacSystemFont,Segoe UI,sans-serif" font-size="50" font-weight="700" fill="#F4F6FB">scout</text>
  <rect x="64" y="146" width="52" height="4" rx="2" fill="url(#acc)"/>
<text x="64" y="176" font-family="-apple-system,BlinkMacSystemFont,Segoe UI,sans-serif" font-size="17" fill="#C7CEDB">Structured, lawful OSINT</text>
<text x="64" y="204" font-family="-apple-system,BlinkMacSystemFont,Segoe UI,sans-serif" font-size="17" fill="#C7CEDB">people/company research</text>
<text x="64" y="232" font-family="-apple-system,BlinkMacSystemFont,Segoe UI,sans-serif" font-size="17" fill="#C7CEDB">full provenance trail</text>
<rect x="650" y="90" width="180" height="230" rx="12" fill="url(#panel)" stroke="#2A3350"/><circle cx="740" cy="150" r="34" fill="#0E111A" stroke="url(#acc)" stroke-width="2"/><rect x="672" y="206" width="136" height="10" rx="5" fill="#1C2230"/><rect x="672" y="230" width="100" height="10" rx="5" fill="#1C2230"/><rect x="672" y="254" width="120" height="10" rx="5" fill="#1C2230"/><circle cx="830" cy="250" r="5" fill="#7C5CFF" opacity="0.7"/>
<circle cx="885" cy="270" r="5" fill="#7C5CFF" opacity="0.7"/>
<circle cx="940" cy="290" r="5" fill="#7C5CFF" opacity="0.7"/>
<circle cx="995" cy="310" r="5" fill="#7C5CFF" opacity="0.7"/>
<path d="M1010 120 c-22 0 -40 18 -40 40 c0 28 40 60 40 60 c0 0 40 -32 40 -60 c0 -22 -18 -40 -40 -40 z" fill="url(#panel)" stroke="#7C5CFF" stroke-width="2"/><circle cx="1010" cy="160" r="12" fill="#7C5CFF"/>
</svg>